<?xml version="1.0" encoding="UTF-8" standalone="no"?>
<svg
   xmlns:dc="http://purl.org/dc/elements/1.1/"
   xmlns:cc="http://creativecommons.org/ns#"
   xmlns:rdf="http://www.w3.org/1999/02/22-rdf-syntax-ns#"
   xmlns:svg="http://www.w3.org/2000/svg"
   xmlns="http://www.w3.org/2000/svg"
   xmlns:sodipodi="http://sodipodi.sourceforge.net/DTD/sodipodi-0.dtd"
   xmlns:inkscape="http://www.inkscape.org/namespaces/inkscape"
   width="0.6441in"
   height="0.8167in"
   viewBox="0 0 418 530"
   id="svg2"
   version="1.1"
   inkscape:version="0.91 r13725"
   sodipodi:docname="Control valve - horizontal green.svg">
  <metadata
     id="metadata96">
    <rdf:RDF>
      <cc:Work
         rdf:about="">
        <dc:format>image/svg+xml</dc:format>
        <dc:type
           rdf:resource="http://purl.org/dc/dcmitype/StillImage" />
      </cc:Work>
    </rdf:RDF>
  </metadata>
  <defs
     id="defs94" />
  <sodipodi:namedview
     pagecolor="#ffffff"
     bordercolor="#666666"
     borderopacity="1"
     objecttolerance="10"
     gridtolerance="10"
     guidetolerance="10"
     inkscape:pageopacity="0"
     inkscape:pageshadow="2"
     inkscape:window-width="827"
     inkscape:window-height="480"
     id="namedview92"
     showgrid="false"
     inkscape:zoom="3.2107534"
     inkscape:cx="28.9845"
     inkscape:cy="36.440046"
     inkscape:window-x="0"
     inkscape:window-y="0"
     inkscape:window-maximized="0"
     inkscape:current-layer="svg2" />
  <path
     style="fill:#7db800"
     d="M117,349 l286,0 0,142 -286,0 0,-142z"
     id="path4" />
  <path
     style="fill:#97c731"
     d="M117,357 l286,0 0,126 -286,0 0,-126z"
     id="path6" />
  <path
     style="fill:#b0d463"
     d="M117,373 l286,0 0,95 -286,0 0,-95z"
     id="path8" />
  <path
     style="fill:#cae297"
     d="M117,387 l286,0 0,66 -286,0 0,-66z"
     id="path10" />
  <path
     style="fill:#e3f0c9"
     d="M117,399 l286,0 0,42 -286,0 0,-42z"
     id="path12" />
  <path
     style="fill:#fff"
     d="M117,411 l286,0 0,18 -286,0 0,-18z"
     id="path14" />
  <path
     style="fill:none;stroke:#4c4c4c;stroke-width:2"
     d="M117,491 l286,0"
     id="path16" />
  <path
     style="fill:none;stroke:#4c4c4c;stroke-width:2"
     d="M403,349 l-286,0"
     id="path18" />
  <path
     style="fill:#7db800"
     d="M141,325 l48,0 0,190 -48,0 0,-190z"
     id="path20" />
  <path
     style="fill:#97c731"
     d="M141,336 l48,0 0,168 -48,0 0,-168z"
     id="path22" />
  <path
     style="fill:#b0d463"
     d="M141,357 l48,0 0,127 -48,0 0,-127z"
     id="path24" />
  <path
     style="fill:#cae297"
     d="M141,376 l48,0 0,88 -48,0 0,-88z"
     id="path26" />
  <path
     style="fill:#e3f0c9"
     d="M141,392 l48,0 0,56 -48,0 0,-56z"
     id="path28" />
  <path
     style="fill:#fff"
     d="M141,408 l48,0 0,23 -48,0 0,-23z"
     id="path30" />
  <path
     style="fill:none;stroke:#4c4c4c;stroke-width:2"
     d="M141,325 l48,0 0,190 -48,0 0,-190"
     id="path32" />
  <path
     style="fill:#7db800"
     d="M332,325 l47,0 0,190 -47,0 0,-190z"
     id="path34" />
  <path
     style="fill:#97c731"
     d="M332,336 l47,0 0,168 -47,0 0,-168z"
     id="path36" />
  <path
     style="fill:#b0d463"
     d="M332,357 l47,0 0,127 -47,0 0,-127z"
     id="path38" />
  <path
     style="fill:#cae297"
     d="M332,376 l47,0 0,88 -47,0 0,-88z"
     id="path40" />
  <path
     style="fill:#e3f0c9"
     d="M332,392 l47,0 0,56 -47,0 0,-56z"
     id="path42" />
  <path
     style="fill:#fff"
     d="M332,408 l47,0 0,23 -47,0 0,-23z"
     id="path44" />
  <path
     style="fill:none;stroke:#4c4c4c;stroke-width:2"
     d="M332,325 l47,0 0,190 -47,0 0,-190"
     id="path46" />
  <path
     style="fill:#7db800"
     d="M236,348 l0,-71 48,0 0,71 -2,9 -5,8 -8,5 -9,2 -9,-2 -8,-5 -5,-8 -2,-9z"
     id="path48" />
  <path
     style="fill:#97c731"
     d="M239,360 l4,5 5,4 6,2 6,1 7,-1 5,-2 5,-4 4,-5 0,-83 -42,0 0,83z"
     id="path50" />
  <path
     style="fill:#b0d463"
     d="M244,366 l4,3 4,1 4,2 4,0 4,0 5,-2 4,-1 3,-3 0,-89 -32,0 0,89z"
     id="path52" />
  <path
     style="fill:#cae297"
     d="M249,370 l3,1 3,0 3,1 2,0 3,0 3,-1 3,0 2,-1 0,-93 -22,0 0,93z"
     id="path54" />
  <path
     style="fill:#e3f0c9"
     d="M253,371 l2,1 2,0 1,0 2,0 2,0 2,0 2,0 2,-1 0,-94 -15,0 0,94z"
     id="path56" />
  <path
     style="fill:#fff"
     d="M257,372 l1,0 1,0 1,0 1,0 1,0 1,0 0,-95 -6,0 0,95z"
     id="path58" />
  <path
     style="fill:none;stroke:#4c4c4c;stroke-width:2"
     d="M284,277 l0,71 -2,9 -5,8 -8,5 -9,2 -9,-2 -8,-5 -5,-8 -2,-9 0,-71"
     id="path60" />
  <path
     style="fill:#97c731;stroke:#4c4c4c;stroke-width:2"
     d="M158,275 l-20,-20 0,-204 20,-21 204,0 21,21 0,204 -21,20 -204,0z"
     id="path62" />
  <path
     style="fill:#7db800"
     d="M373,40 l10,11 0,204 -21,20 -204,0 -10,-10 18,-18 8,8 173,0 15,-16 0,-173 -7,-8 18,-18z"
     id="path64" />
  <path
     style="fill:#cae297"
     d="M148,265 l-10,-10 0,-204 20,-21 204,0 11,10 -18,18 -8,-7 -173,0 -16,15 0,173 8,8 -18,18z"
     id="path66" />
  <path
     style="fill:none;stroke:#4c4c4c;stroke-width:2"
     d="M158,275 l-20,-20 0,-204 20,-21 204,0 21,21 0,204 -21,20 -204,0"
     id="path68" />
  <path
     style="fill:#97c731;stroke:#4c4c4c;stroke-width:2"
     d="M401,173 l-281,0 -3,-2 0,-36 3,-3 281,0 2,3 0,36 -2,2z"
     id="path70" />
  <path
     style="fill:#cae297"
     d="M120,173 l-3,-2 0,-36 3,-3 281,0 -3,5 -276,0 0,31 -2,5z"
     id="path72" />
  <path
     style="fill:#7db800"
     d="M401,132 l2,3 0,36 -2,2 -281,0 2,-5 276,0 0,-31 3,-5z"
     id="path74" />
  <path
     style="fill:none;stroke:#4c4c4c;stroke-width:2"
     d="M401,173 l-281,0 -3,-2 0,-36 3,-3 281,0 2,3 0,36 -2,2"
     id="path76" />
  <path
     style="fill:#7db800;stroke:#4c4c4c;stroke-width:2"
     d="M209,30 l-3,-15 -24,0 -3,15 30,0z"
     id="path78" />
  <path
     style="fill:#b0d463;stroke:#4c4c4c;stroke-width:2"
     d="M204,30 l-2,-15 -20,0 -3,15 25,0z"
     id="path80" />
  <path
     style="fill:#e3f0c9;stroke:#4c4c4c;stroke-width:2"
     d="M186,15 l-4,0 -3,15 5,0 2,-15z"
     id="path82" />
</svg>
